# xmcd CD database file
#
# Track frame offsets:
#	150
#	21410
#	40513
#	53576
#	70141
#	93127
#	112870
#	127319
#	138641
#	157485
#	172828
#	195762
#	213211
#	234183
#
# Disc length: 3371 seconds
#
# Revision: 0
# Processed by: cddbd v1.5.1PL0 Copyright (c) Steve Scherf et al.
# Submitted via: CDex 1.51
#
DISCID=b30d290e
DTITLE=Various Artist - Myths and Legends CD1
DYEAR=1900
DGENRE=New Age
TTITLE0=Joy of man's desiring
TTITLE1=Orinoco flow
TTITLE2=Adagio for strings
TTITLE3=Athair ar neamh
TTITLE4=Heaven queen
TTITLE5=The memory of threes
TTITLE6=Sacred
TTITLE7=No holly for miss quinn
TTITLE8=Lights in the sky
TTITLE9=Lothlorien
TTITLE10=Night sky
TTITLE11=The celts
TTITLE12=May it be
TTITLE13=Loreta and desiree's bouquet part 1
EXTD=
EXTT0=
EXTT1=
EXTT2=
EXTT3=
EXTT4=
EXTT5=
EXTT6=
EXTT7=
EXTT8=
EXTT9=
EXTT10=
EXTT11=
EXTT12=
EXTT13=
PLAYORDER=
